<svg xmlns="http://www.w3.org/2000/svg" viewBox="0 0 1480.86 232.61"><defs><style>.cls-1{fill:#211f1f;}.cls-2{fill:#6399a8;}</style></defs><title>bandcamp-logo-long</title><g id="Layer_2" data-name="Layer 2"><g id="Layer_1-2" data-name="Layer 1"><path class="cls-1" d="M311.47,0H339.8V67.85h.5C348,55,364.15,47,378.56,47c40.5,0,60.13,31.89,60.13,70.7,0,35.72-17.39,69.39-55.41,69.39-17.39,0-36-4.36-44.48-21.84h-.49v18.25H311.47V0Zm63.36,70.17c-23.84,0-36,18.76-36,47,0,26.72,13.18,46.78,36,46.78,25.85,0,35.54-23.65,35.54-46.78,0-24.16-12.2-47-35.55-47"/><path class="cls-1" d="M658.11,47c-16.9,0-31.56,9-40,23.66l-.5-.52V50.64H590.77V163.81c-16.16.19-17.66.19-18.89.19-5.22,0-6.71-2.83-6.71-10V85.59c0-28-26.34-38.56-51.44-38.56-28.33,0-56.4,10-58.38,44.22h28.32c1.24-14.4,12.42-21.08,28.32-21.08,11.43,0,26.59,2.83,26.59,18,0,17.22-18.14,14.91-38.52,18.77-23.85,2.82-49.44,8.23-49.44,41.37,0,26,20.87,38.82,44,38.82,15.17,0,33.3-4.88,44.49-16.17,2.22,12.07,10.43,16.17,21.86,16.17,4.72,0,13.66-1.79,58-3.34v-.26h.17V105.14c0-19.55,12.18-35,31.06-35,16.65,0,24.6,9,25.1,29.82v83.54h28.33V92.28C703.64,62.47,686,47,658.15,47M536.89,138.8c0,18.51-19.38,25.2-31.8,25.2-9.94,0-26.1-3.87-26.1-17,0-15.43,10.94-20.06,23.12-22.12,12.42-2.31,26.09-2,34.78-8Z"/><path class="cls-1" d="M849.45,183.53H822.61v-18h-.49c-7.46,15.17-23.62,21.59-39.76,21.59-40.5,0-60.13-31.11-60.13-70.94,0-48.06,27.58-69.14,55.66-69.14,16.15,0,34,6.17,42.73,20.81h.51V0h28.32V183.53ZM786.09,164c25.34,0,36-23.91,36-47,0-29.29-13.67-46.78-35.54-46.78-26.58,0-36,24.42-36,48.32,0,22.88,10.93,45.5,35.54,45.5"/><path class="cls-1" d="M962,95.11c-2.24-16.2-13.66-24.94-29.32-24.94-14.66,0-35.28,8-35.28,48.33,0,22.11,9.44,45.5,34,45.5,16.4,0,27.82-11.32,30.56-30.35h28.33c-5.22,34.45-25.84,53.47-58.89,53.47-40.26,0-62.37-29.55-62.37-68.62C869.08,78.4,890.2,47,932.44,47c29.82,0,55.17,15.42,57.9,48.07H962Z"/><path class="cls-1" d="M1285.06,47c-18.64,0-30.81,8.49-40.25,22.11C1239.09,54,1224.43,47,1208.77,47c-20.37,0-31.06,9-39.5,22.11h-.75V50.64h-26.85V163.81c-16.15.19-17.65.19-18.9.19-5.21,0-6.7-2.83-6.7-10V85.59c0-28-26.33-38.56-51.44-38.56-28.32,0-56.4,10-58.39,44.22h28.33c1.24-14.4,12.43-21.08,28.33-21.08,11.43,0,26.58,2.83,26.58,18,0,17.22-18.14,14.91-38.51,18.77-23.86,2.82-49.45,8.23-49.45,41.37,0,26,20.87,38.82,44,38.82,15.16,0,33.29-4.88,44.48-16.17,2.23,12.07,10.43,16.17,21.87,16.17,4.71,0,13.66-1.79,57.57-3.34v-.26h.58v-78.9c0-22.11,13.42-34.45,28.08-34.45,17.14,0,22.61,9.76,22.61,28v85.33H1249V105.65c0-22.37,8.2-35.48,27.34-35.48,22.11,0,23.35,14.65,23.35,35.74v77.62H1328V91.77c0-32.4-15.88-44.73-43-44.73M1087.76,138.8c0,18.51-19.38,25.2-31.81,25.2-9.93,0-26.08-3.87-26.08-17,0-15.43,10.94-20.06,23.1-22.12,12.43-2.31,26.1-2,34.79-8Z"/><path class="cls-1" d="M1353.64,50.64h26.84v18h.5c8-15.16,23.35-21.6,39.75-21.6,40.5,0,60.13,31.89,60.13,70.7,0,35.72-17.39,69.39-55.4,69.39-16.4,0-34-6.17-43-20.81h-.5v66.3h-28.33v-182ZM1417,70.17c-23.85,0-36,18.76-36,47,0,26.72,13.17,46.78,36,46.78,25.84,0,35.54-23.65,35.54-46.78,0-24.16-12.2-47-35.54-47"/><polygon class="cls-2" points="212.45 183.13 0 183.13 99.21 0 311.66 0 212.45 183.13"/></g></g></svg>