<svg xmlns="http://www.w3.org/2000/svg" xmlns:xlink="http://www.w3.org/1999/xlink" viewBox="0 0 125 25.53"><defs><style>.cls-1{fill:#fff;}.cls-2{mask:url(#mask);}.cls-3{fill:url(#linear-gradient);}.cls-4{mask:url(#mask-2);}.cls-5{fill:url(#radial-gradient);}.cls-6{mask:url(#mask-3);}.cls-7{fill:url(#radial-gradient-2);}.cls-8{mask:url(#mask-4-2);}.cls-9{fill:url(#radial-gradient-3);}.cls-10{mask:url(#mask-5);}.cls-11{fill:url(#radial-gradient-4);}.cls-12{mask:url(#mask-6);}.cls-13{fill:url(#radial-gradient-5);}.cls-14{mask:url(#mask-7);}</style><mask id="mask" x="0" y="0" width="25.53" height="25.53" maskUnits="userSpaceOnUse"><g id="mask-4"><path id="path-3" class="cls-1" d="M7.83,0H6.3A11.92,11.92,0,0,0,4.62.16,5.93,5.93,0,0,0,3,.68a5.51,5.51,0,0,0-1.36,1A5.23,5.23,0,0,0,.69,3,5.62,5.62,0,0,0,.16,4.62,11.92,11.92,0,0,0,0,6.3c0,.26,0,.51,0,.77V18.46c0,.25,0,.51,0,.77A11.78,11.78,0,0,0,.16,20.9a6,6,0,0,0,.52,1.6A5.46,5.46,0,0,0,3,24.84a6,6,0,0,0,1.59.53,11.78,11.78,0,0,0,1.68.14H19.23a11.64,11.64,0,0,0,1.67-.14,5.68,5.68,0,0,0,1.6-.53,5.28,5.28,0,0,0,1.35-1,5.06,5.06,0,0,0,1-1.35,5.66,5.66,0,0,0,.52-1.6,10.37,10.37,0,0,0,.15-1.67c0-.26,0-.52,0-.77V7.07c0-.26,0-.51,0-.77a10.6,10.6,0,0,0-.15-1.68A5.6,5.6,0,0,0,24.84,3a5.51,5.51,0,0,0-1-1.36,5,5,0,0,0-1.35-1A5.68,5.68,0,0,0,20.9.16,11.78,11.78,0,0,0,19.23,0H7.83Z"/></g></mask><linearGradient id="linear-gradient" x1="-1246.87" y1="745.56" x2="-1246.87" y2="746.57" gradientTransform="translate(31389.04 -18761.27) scale(25.16)" gradientUnits="userSpaceOnUse"><stop offset="0" stop-color="#ef4db7"/><stop offset="1" stop-color="#c643fd"/></linearGradient><mask id="mask-2" x="12.76" y="14.41" width="5.97" height="6.8" maskUnits="userSpaceOnUse"><g id="mask-14"><path id="path-13" class="cls-1" d="M12.76,17.29l4.46,3.25c.24.17.48.34.73.5a1.13,1.13,0,0,0,.27.13h0a.43.43,0,0,0,.19,0,.25.25,0,0,0,.15-.05.22.22,0,0,0,.1-.13.5.5,0,0,0,0-.19v0a1,1,0,0,0,0-.3c-.07-.28-.16-.56-.25-.84l-1.7-5.25Z"/></g></mask><radialGradient id="radial-gradient" cx="-1089.41" cy="950.03" r="0.01" gradientTransform="translate(6424.88 -5548.33) scale(5.88)" gradientUnits="userSpaceOnUse"><stop offset="0" stop-color="#fae9fb"/><stop offset="0.68" stop-color="#fae9fb"/><stop offset="0.81" stop-color="#f8def8"/><stop offset="0.98" stop-color="#f5caf2"/><stop offset="1" stop-color="#f5caf2"/></radialGradient><mask id="mask-3" x="3.3" y="9.75" width="7" height="4.66" maskUnits="userSpaceOnUse"><g id="mask-19"><path id="path-18" class="cls-1" d="M4.78,9.75l-.87,0a1.57,1.57,0,0,0-.3.05h0a.68.68,0,0,0-.17.09.42.42,0,0,0-.09.14.29.29,0,0,0,0,.16,1,1,0,0,0,.09.17l0,0a1,1,0,0,0,.21.21c.22.19.46.37.69.54l4.47,3.24L10.3,9.75Z"/></g></mask><radialGradient id="radial-gradient-2" cx="-1021.31" cy="1006.44" r="0.01" gradientTransform="translate(4688.15 -4628.64) scale(4.6)" gradientUnits="userSpaceOnUse"><stop offset="0" stop-color="#fae1f8"/><stop offset="0.6" stop-color="#fae1f8"/><stop offset="0.85" stop-color="#f7d6f7"/><stop offset="1" stop-color="#f7d6f7"/></radialGradient><mask id="mask-4-2" x="6.79" y="14.41" width="5.97" height="6.8" maskUnits="userSpaceOnUse"><g id="mask-24"><path id="path-23" class="cls-1" d="M7.08,19.66c-.09.28-.17.56-.25.84a1.54,1.54,0,0,0,0,.3v0a.41.41,0,0,0,0,.19.27.27,0,0,0,.09.12.44.44,0,0,0,.16.06l.19,0h0A1.34,1.34,0,0,0,7.57,21c.24-.16.49-.33.72-.5l4.47-3.24-2.52-1.83L8.79,14.41Z"/></g></mask><radialGradient id="radial-gradient-3" cx="-1081.87" cy="947.68" r="0" gradientTransform="translate(6383.7 -5547.15) scale(5.88)" gradientUnits="userSpaceOnUse"><stop offset="0" stop-color="#fae9fc"/><stop offset="0.67" stop-color="#fae9fc"/><stop offset="0.81" stop-color="#f8defa"/><stop offset="0.91" stop-color="#f6d4f8"/><stop offset="1" stop-color="#f6d4f8"/></radialGradient><mask id="mask-5" x="15.21" y="9.75" width="7" height="4.67" maskUnits="userSpaceOnUse"><g id="mask-29"><path id="path-28" class="cls-1" d="M15.21,9.75l1.52,4.66,4.46-3.24c.24-.17.47-.35.7-.54a1,1,0,0,0,.21-.21l0,0a.51.51,0,0,0,.08-.17.43.43,0,0,0,0-.16.42.42,0,0,0-.09-.14.91.91,0,0,0-.17-.09h0a1.35,1.35,0,0,0-.29-.05c-.29,0-.58,0-.88,0Z"/></g></mask><radialGradient id="radial-gradient-4" cx="-1029.78" cy="1012.34" r="0.01" gradientTransform="translate(4756.11 -4628.64) scale(4.6)" xlink:href="#radial-gradient"/><mask id="mask-6" x="10.31" y="3.2" width="4.91" height="6.55" maskUnits="userSpaceOnUse"><g id="mask-9"><path id="path-8" class="cls-1" d="M12.6,3.24a.92.92,0,0,0-.14.14l0,0a1.66,1.66,0,0,0-.13.27c-.11.27-.21.55-.3.83l-1.7,5.25h4.9L13.51,4.5c-.09-.28-.19-.56-.3-.83a1.16,1.16,0,0,0-.14-.27l0,0a.47.47,0,0,0-.14-.14.28.28,0,0,0-.15,0,.29.29,0,0,0-.16,0"/></g></mask><radialGradient id="radial-gradient-5" cx="-1042.37" cy="989.51" r="0.01" gradientTransform="translate(5041.48 -4767.96) scale(4.84)" gradientUnits="userSpaceOnUse"><stop offset="0" stop-color="#fbe3f8"/><stop offset="0.74" stop-color="#fbe3f8"/><stop offset="0.81" stop-color="#fadef6"/><stop offset="0.88" stop-color="#f9d1f0"/><stop offset="0.96" stop-color="#f6bae7"/><stop offset="0.98" stop-color="#f5b1e3"/><stop offset="1" stop-color="#f5b1e3"/></radialGradient><mask id="mask-7" x="0" y="0" width="25.53" height="25.53" maskUnits="userSpaceOnUse"><g id="mask-32"><rect id="path-31" class="cls-1" width="25.53" height="25.53"/></g></mask></defs><title>itunes-store-logo</title><g id="Layer_2" data-name="Layer 2"><g id="Layer_1-2" data-name="Layer 1"><g id="icons"><g id="Clipped"><g class="cls-2"><rect id="Rectangle-path" class="cls-3" width="25.53" height="25.53"/></g><g id="Group"><g class="cls-4"><rect id="Rectangle-path-2" data-name="Rectangle-path" class="cls-5" x="12.76" y="14.41" width="5.97" height="6.8"/></g><g class="cls-6"><rect id="Rectangle-path-3" data-name="Rectangle-path" class="cls-7" x="3.3" y="9.75" width="7" height="4.66"/></g><g class="cls-8"><rect id="Rectangle-path-4" data-name="Rectangle-path" class="cls-9" x="6.79" y="14.41" width="5.97" height="6.8"/></g><g class="cls-10"><rect id="Rectangle-path-5" data-name="Rectangle-path" class="cls-11" x="15.21" y="9.75" width="7" height="4.66"/></g><g class="cls-12"><rect id="Rectangle-path-6" data-name="Rectangle-path" class="cls-13" x="10.31" y="3.2" width="4.91" height="6.55"/></g><g id="Clipped-2" data-name="Clipped"><g class="cls-14"><polygon id="Shape" class="cls-1" points="10.3 9.75 8.79 14.41 10.24 15.46 12.76 17.3 16.73 14.41 15.21 9.75 10.3 9.75"/></g></g></g></g><path id="Shape-2" data-name="Shape" d="M31.39,6.89A1.1,1.1,0,1,1,32.49,8,1.09,1.09,0,0,1,31.39,6.89Zm.15,2.42h1.89v9.2H31.54Zm6.92,9.2V7.58H34.59V5.89h9.68V7.58H40.41V18.51H38.46Zm13.7,0H50.35V16.93h0a2.88,2.88,0,0,1-2.85,1.69,3.07,3.07,0,0,1-3.23-3.41V9.31h1.89v5.54c0,1.4.66,2.14,2,2.14a2.13,2.13,0,0,0,2.18-2.38V9.31h1.89v9.2ZM54,9.31h1.8v1.57h0a2.92,2.92,0,0,1,2.89-1.67c2,0,3.19,1.3,3.19,3.41v5.89h-1.9V13c0-1.38-.63-2.15-2-2.15a2.14,2.14,0,0,0-2.18,2.38v5.3H54V9.31Zm17.63,6.5c-.25,1.67-1.88,2.81-4,2.81-2.67,0-4.34-1.79-4.34-4.67S65,9.2,67.61,9.2s4.15,1.75,4.15,4.54v.64h-6.5v.12a2.4,2.4,0,0,0,2.48,2.6,2.08,2.08,0,0,0,2.12-1.29Zm-6.38-2.75h4.6a2.2,2.2,0,0,0-2.26-2.33A2.33,2.33,0,0,0,65.27,13.06ZM76.65,9.2c2,0,3.5,1.13,3.54,2.76H78.42c-.08-.82-.77-1.31-1.82-1.31s-1.71.47-1.71,1.19c0,.55.46.91,1.41,1.15l1.55.36c1.85.44,2.55,1.13,2.55,2.47,0,1.67-1.57,2.8-3.82,2.8S73,17.51,72.81,15.83h1.87c.14.89.84,1.36,2,1.36s1.83-.47,1.83-1.2c0-.57-.35-.87-1.31-1.12l-1.64-.4c-1.66-.4-2.5-1.25-2.5-2.53C73.05,10.32,74.51,9.2,76.65,9.2ZM87.1,15c.14,1.25,1.35,2.07,3,2.07s2.74-.83,2.74-2-.69-1.57-2.32-2l-1.64-.39c-2.32-.56-3.39-1.65-3.39-3.41,0-2.17,1.9-3.67,4.59-3.67s4.49,1.5,4.56,3.67H92.74c-.12-1.26-1.16-2-2.68-2S87.5,8.1,87.5,9.22c0,.89.66,1.42,2.29,1.82l1.39.34c2.59.61,3.67,1.65,3.67,3.5,0,2.36-1.88,3.84-4.87,3.84-2.8,0-4.69-1.44-4.81-3.73H87.1ZM98.82,7.13V9.31h1.75v1.5H98.82v5.07c0,.78.35,1.15,1.12,1.15a5.23,5.23,0,0,0,.62,0v1.48a4.68,4.68,0,0,1-1,.09c-1.86,0-2.59-.7-2.59-2.48V10.8H95.58V9.31h1.34V7.13Zm2.52,6.78c0-2.9,1.71-4.71,4.37-4.71s4.36,1.81,4.36,4.71-1.69,4.71-4.36,4.71S101.34,16.81,101.34,13.91Zm6.81,0c0-2-.91-3.16-2.44-3.16s-2.44,1.18-2.44,3.16.91,3.16,2.44,3.16S108.15,15.9,108.15,13.91Zm3.38-4.6h1.8v1.57h0a2.19,2.19,0,0,1,2.21-1.67,3.2,3.2,0,0,1,.65.07v1.77a2.71,2.71,0,0,0-.85-.11,1.9,1.9,0,0,0-2,2.11v5.46h-1.89V9.31Zm13.36,6.5c-.25,1.67-1.88,2.81-4,2.81-2.67,0-4.33-1.79-4.33-4.67s1.67-4.75,4.26-4.75S125,11,125,13.74v.64h-6.5v.12A2.4,2.4,0,0,0,121,17.1a2.08,2.08,0,0,0,2.12-1.29Zm-6.38-2.75h4.6a2.2,2.2,0,0,0-2.26-2.33A2.33,2.33,0,0,0,118.51,13.06Z"/></g></g></g></svg>