<svg xmlns="http://www.w3.org/2000/svg" viewBox="0 0 300 47.21"><defs><style>.cls-1{fill:#211f1f;}.cls-2{fill:#6399a8;}</style></defs><title>oeuvre-stores-bandcamp</title><g id="Layer_2" data-name="Layer 2"><g id="Layer_1-2" data-name="Layer 1"><g id="Bandcamp"><path class="cls-1" d="M63,0h5.67V13.78h.21a9.32,9.32,0,0,1,7.75-4.27c8.21,0,12.19,6.46,12.19,14.32,0,7.24-3.53,14.06-11.23,14.06-3.52,0-7.29-.88-9-4.46h-.11v3.65H63ZM75.92,14.2c-4.83,0-7.3,3.8-7.3,9.52,0,5.42,2.68,9.48,7.3,9.48,5.24,0,7.2-4.79,7.2-9.48,0-4.89-2.47-9.52-7.2-9.52"/><path class="cls-1" d="M274.15,10.33h5.47v3.45h.15c1.62-3,4.73-4.27,8.05-4.27C296,9.51,300,16,300,23.84c0,7.24-3.52,14.06-11.22,14.06-3.33,0-6.89-1.25-8.71-4.27h-.25V47.21h-5.67V10.33Zm12.91,3.87c-4.83,0-7.29,3.8-7.29,9.52,0,5.42,2.67,9.48,7.29,9.48,5.24,0,7.2-4.79,7.2-9.48,0-4.89-2.47-9.52-7.2-9.52"/><path class="cls-1" d="M133.24,9.51a9.26,9.26,0,0,0-8.11,4.79l-.1-.11V10.33h-5.26V33.26l-3.89,0c-1.08,0-1.38-.57-1.38-2v-14c0-5.65-5.36-7.79-10.46-7.79-5.76,0-11.47,2-11.87,8.94h5.75c.26-2.91,2.53-4.26,5.76-4.26,2.33,0,5.41.57,5.41,3.63,0,3.48-3.69,3-7.83,3.8C96.41,22.18,91.2,23.27,91.2,30c0,5.25,4.25,7.84,9,7.84,3.09,0,6.77-1,9-3.26.45,2.43,2.12,3.26,4.44,3.26,1,0,2.78-.36,11.8-.67v-.05h0V21.19c0-4,2.46-7.09,6.27-7.09,3.37,0,5,1.83,5.07,6V37.08h5.68V18.68c0-6-3.58-9.17-9.22-9.17m-24.42,18.6c0,3.75-3.92,5.1-6.44,5.1-2,0-5.29-.78-5.29-3.44,0-3.13,2.22-4.07,4.69-4.48s5.28-.41,7-1.63Z"/><path class="cls-1" d="M172,37.28h-5.47V33.63h0c-1.51,3-4.79,4.27-8.06,4.27-8.2,0-12.18-6.31-12.18-14.38,0-9.73,5.59-14,11.28-14,3.27,0,6.89,1.25,8.66,4.27h.12V0H172V37.28Zm-12.8-4.07c5.13,0,7.29-4.84,7.29-9.52,0-5.94-2.77-9.48-7.2-9.48C154,14.21,152,19.16,152,24c0,4.64,2.21,9.22,7.2,9.22"/><path class="cls-1" d="M194.93,19.26a5.62,5.62,0,0,0-6-5.11c-3,0-7.23,1.64-7.23,9.9,0,4.52,1.93,9.31,7,9.31,3.36,0,5.7-2.31,6.26-6.21h5.8c-1.07,7.05-5.29,11-12.06,11-8.24,0-12.77-6.05-12.77-14,0-8.22,4.33-14.65,13-14.65,6.1,0,11.3,3.16,11.85,9.85h-5.8Z"/><path class="cls-1" d="M260.33,9.5A9.32,9.32,0,0,0,252.18,14c-1.16-3.06-4.13-4.48-7.3-4.48a8.64,8.64,0,0,0-8,4.48h-.2V10.33H231.4V33.26l-3.89,0c-1.07,0-1.38-.57-1.38-2v-14c0-5.65-5.3-7.79-10.35-7.79-5.7,0-11.35,2-11.75,8.94h5.7c.25-2.91,2.5-4.26,5.7-4.26,2.3,0,5.35.57,5.35,3.63,0,3.48-3.65,3-7.75,3.8-4.8.57-9.95,1.66-9.95,8.35,0,5.25,4.2,7.84,8.86,7.84,3.05,0,6.69-1,8.95-3.26.44,2.43,2.09,3.26,4.4,3.26.94,0,2.74-.36,11.58-.67v-.05h.2V21.18c0-4.48,2.67-7,5.64-7,3.48,0,4.58,2,4.69,5.68v17.4h5.68V21.5c0-4.53,1.67-7.18,5.57-7.18,4.51,0,4.76,3,4.76,7.24V37.08h5.67V18.58c0-6.57-3.22-9.07-8.71-9.07m-39.91,18.6c0,3.75-3.93,5.1-6.45,5.1-2,0-5.28-.78-5.28-3.44,0-3.13,2.22-4.07,4.68-4.48s5.29-.41,7.05-1.63Z"/><polygon class="cls-2" points="43.01 37.08 0 37.08 20.09 0 63.1 0 43.01 37.08"/></g></g></g></svg>