<svg id="oeuvre-stores-itunes" xmlns="http://www.w3.org/2000/svg" xmlns:xlink="http://www.w3.org/1999/xlink" viewBox="0 0 300 61.26"><defs><linearGradient id="linear-gradient" x1="30.63" x2="30.63" y2="61.26" gradientUnits="userSpaceOnUse"><stop offset="0" stop-color="#ef4db7"/><stop offset="1" stop-color="#c643fd"/></linearGradient></defs><title>oeuvre-stores-itunes_3</title><g id="Layer_2" data-name="Layer 2"><g id="Layer_1-2" data-name="Layer 1"><g id="iTunes"><path id="Shape" d="M75.34,16.53A2.64,2.64,0,1,1,78,19.11,2.6,2.6,0,0,1,75.34,16.53Zm.35,5.81h4.54V44.42H75.69Zm16.6,22.09V18.19H83V14.14h23.24v4.05H97V44.42h-4.7Zm32.9,0h-4.35v-3.8h-.1c-1.26,2.64-3.46,4-6.84,4-4.81,0-7.75-3.11-7.75-8.17V22.35h4.54V35.63c0,3.36,1.59,5.14,4.72,5.14s5.24-2.26,5.24-5.71V22.35h4.54V44.43Zm4.46-22.09H134V26.1h.11c1.32-2.64,3.55-4,6.95-4,4.87,0,7.65,3.13,7.65,8.19V44.42h-4.55V31.16c0-3.32-1.53-5.17-4.72-5.17s-5.23,2.31-5.23,5.71V44.42h-4.53V22.34ZM172,37.94c-.61,4-4.51,6.76-9.51,6.76-6.42,0-10.41-4.31-10.41-11.21s4-11.42,10.22-11.42,9.95,4.2,9.95,10.89v1.56H156.63v.27c0,3.78,2.37,6.25,5.94,6.25,2.52,0,4.49-1.19,5.1-3.1Zm-15.32-6.59h11c-.11-3.38-2.27-5.61-5.42-5.61S156.88,28,156.65,31.35ZM184,22.09c4.9,0,8.4,2.71,8.5,6.61H188.2c-.18-1.95-1.84-3.15-4.36-3.15s-4.1,1.14-4.1,2.86c0,1.32,1.09,2.2,3.38,2.77l3.72.86c4.45,1.07,6.13,2.7,6.13,5.94,0,4-3.78,6.72-9.18,6.72-5.2,0-8.71-2.67-9-6.7h4.49c.32,2.12,2,3.25,4.76,3.25s4.41-1.11,4.41-2.87c0-1.37-.84-2.1-3.15-2.69l-3.94-1c-4-1-6-3-6-6.06C175.32,24.76,178.82,22.09,184,22.09ZM209,36c.34,3,3.25,5,7.25,5,3.81,0,6.56-2,6.56-4.68,0-2.35-1.66-3.76-5.58-4.72l-3.92-.95c-5.56-1.34-8.15-3.94-8.15-8.16,0-5.23,4.56-8.82,11-8.82s10.79,3.59,10.94,8.82h-4.58c-.27-3-2.77-4.85-6.42-4.85S210,19.44,210,22.13c0,2.14,1.59,3.4,5.5,4.37l3.34.81c6.21,1.48,8.79,4,8.79,8.4,0,5.67-4.51,9.22-11.69,9.22-6.72,0-11.25-3.47-11.54-8.94H209Zm28.13-18.87v5.22h4.2v3.59h-4.2V38.1c0,1.89.84,2.77,2.69,2.77a14.4,14.4,0,0,0,1.49-.1v3.57a13.06,13.06,0,0,1-2.52.2c-4.47,0-6.21-1.68-6.21-6V25.93H229.4V22.34h3.21V17.11h4.55Zm6.06,16.26c0-6.94,4.1-11.31,10.48-11.31s10.47,4.37,10.47,11.31S260.12,44.7,253.7,44.7,243.22,40.35,243.22,33.38Zm16.34,0c0-4.76-2.19-7.57-5.86-7.57s-5.86,2.83-5.86,7.57S250,41,253.7,41,259.56,38.17,259.56,33.38Zm8.1-11H272V26.1h.11a5.25,5.25,0,0,1,5.3-4,7.21,7.21,0,0,1,1.56.17v4.24a6.28,6.28,0,0,0-2-.28c-2.91,0-4.72,2-4.72,5.08v13.1h-4.53V22.34Zm32.09,15.6c-.61,4-4.52,6.76-9.51,6.76-6.42,0-10.41-4.31-10.41-11.21s4-11.42,10.22-11.42S300,26.27,300,33v1.56H284.41v.27c0,3.78,2.37,6.25,5.93,6.25,2.52,0,4.5-1.19,5.11-3.1Zm-15.32-6.59h11c-.1-3.38-2.26-5.61-5.41-5.61S284.66,28,284.43,31.35Z"/><path class="cls-1" d="M46.14,61.23a25.9,25.9,0,0,0,4-.35A13.61,13.61,0,0,0,54,59.62a12.73,12.73,0,0,0,3.26-2.37A13.11,13.11,0,0,0,59.62,54a14,14,0,0,0,1.26-3.83,28.59,28.59,0,0,0,.35-4c0-.61,0-1.23,0-1.85V17c0-.61,0-1.23,0-1.85a28.58,28.58,0,0,0-.35-4,13.67,13.67,0,0,0-1.26-3.83A13.11,13.11,0,0,0,57.25,4,12.67,12.67,0,0,0,54,1.65,13.3,13.3,0,0,0,50.17.39a26,26,0,0,0-4-.35c-.61,0-1.23,0-1.85,0H17L15.12,0a28.72,28.72,0,0,0-4,.35A13.94,13.94,0,0,0,7.27,1.64,13.35,13.35,0,0,0,4,4,12.87,12.87,0,0,0,1.65,7.27,13.26,13.26,0,0,0,.39,11.1a27.05,27.05,0,0,0-.36,4c0,.62,0,1.23,0,1.85s0,1.17,0,1.76V44.29c0,.62,0,1.24,0,1.85a28.72,28.72,0,0,0,.35,4A13.67,13.67,0,0,0,1.64,54,13.11,13.11,0,0,0,4,57.25a12.91,12.91,0,0,0,3.26,2.37,13.61,13.61,0,0,0,3.82,1.26,26,26,0,0,0,4,.35c.61,0,1.23,0,1.85,0H44.29C44.91,61.25,45.53,61.25,46.14,61.23Z"/><polygon class="cls-2" points="24.73 23.39 21.09 34.59 24.57 37.12 30.62 41.51 40.15 34.59 36.51 23.39 24.73 23.39"/><path class="cls-3" d="M52.53,25.52A2.79,2.79,0,0,0,53,25l.05-.07a1.26,1.26,0,0,0,.19-.41.73.73,0,0,0,0-.39.66.66,0,0,0-.22-.31,1,1,0,0,0-.4-.22l-.08,0a2.85,2.85,0,0,0-.71-.12c-.7,0-1.4-.06-2.11-.06H36.51l3.63,11.2h0L50.86,26.8C51.43,26.39,52,26,52.53,25.52Z"/><path class="cls-3" d="M16.62,50.77a.82.82,0,0,0,.36.13,1.3,1.3,0,0,0,.46-.06l.08,0a3,3,0,0,0,.64-.32c.59-.38,1.17-.78,1.74-1.19l10.72-7.79-6.05-4.39L21.1,34.59h0L17,47.19c-.21.67-.41,1.34-.6,2a2.83,2.83,0,0,0-.1.71V50a1.25,1.25,0,0,0,.08.45A.83.83,0,0,0,16.62,50.77Z"/><path class="cls-3" d="M11.48,23.39q-1.05,0-2.1.06a2.85,2.85,0,0,0-.71.12l-.08,0a1.08,1.08,0,0,0-.41.22.68.68,0,0,0-.22.7,1.26,1.26,0,0,0,.19.41l0,.07a3.09,3.09,0,0,0,.5.52c.55.44,1.11.87,1.68,1.28l10.71,7.79,3.64-11.2Z"/><path class="cls-3" d="M44.24,47.18l-4.1-12.59h0l-9.52,6.92,10.72,7.78c.56.42,1.14.81,1.74,1.2a3,3,0,0,0,.64.32l.08,0a1.27,1.27,0,0,0,.46.06.63.63,0,0,0,.36-.13.69.69,0,0,0,.23-.3,1.34,1.34,0,0,0,.09-.46v-.08a2.57,2.57,0,0,0-.11-.72C44.65,48.53,44.46,47.85,44.24,47.18Z"/><path class="cls-3" d="M32.41,10.79c-.21-.67-.45-1.33-.7-2a3.22,3.22,0,0,0-.33-.64l-.06-.07A1.2,1.2,0,0,0,31,7.79a.68.68,0,0,0-.74,0,1.2,1.2,0,0,0-.33.31l-.05.07a3,3,0,0,0-.34.64c-.25.65-.49,1.31-.7,2l-4.1,12.6H36.51Z"/></g></g></g></svg>