<svg xmlns="http://www.w3.org/2000/svg" viewBox="0 0 300 90.2"><defs><style>.cls-1{fill:#f90;}.cls-1,.cls-2{fill-rule:evenodd;}</style></defs><title>oeuvre-stores-amazon</title><g id="Layer_2" data-name="Layer 2"><g id="Layer_1-2" data-name="Layer 1"><g id="Amazon"><path id="path8" class="cls-1" d="M185.88,70.48c-17.45,12.86-42.73,19.72-64.5,19.72A116.73,116.73,0,0,1,42.57,60.13c-1.63-1.47-.17-3.49,1.79-2.34A158.59,158.59,0,0,0,123.21,78.7a156.78,156.78,0,0,0,60.14-12.3c3-1.25,5.42,1.94,2.53,4.08"/><path id="path10" class="cls-1" d="M193.13,62.18c-2.22-2.85-14.74-1.34-20.36-.68-1.71.21-2-1.28-.43-2.35,10-7,26.34-5,28.24-2.64s-.49,18.77-9.86,26.6c-1.44,1.2-2.81.56-2.17-1,2.1-5.25,6.82-17,4.58-19.89"/><path id="path12" class="cls-2" d="M173.31,9.6V2.92A1.68,1.68,0,0,1,175,1.2h30.46a1.68,1.68,0,0,1,1.74,1.72V8.76c0,1-.82,2.27-2.26,4.29l-15.58,22.6c5.79-.15,11.9.73,17.15,3.73A3.13,3.13,0,0,1,208.13,42v7.22c0,1-1.09,2.16-2.24,1.56a35.09,35.09,0,0,0-32.22,0c-1.06.58-2.16-.57-2.16-1.57V42.39a8.25,8.25,0,0,1,1.12-4.69l18.3-26.29h-16a1.69,1.69,0,0,1-1.76-1.72"/><path id="path14" class="cls-2" d="M61.62,52.24H52.46a1.75,1.75,0,0,1-1.64-1.59V2.91A1.74,1.74,0,0,1,52.59,1.2h8.57a1.75,1.75,0,0,1,1.67,1.59V9H63C65.26,3,69.51.15,75.24.15S84.7,3,87.31,9a13.72,13.72,0,0,1,23.61-3.62c2.94,4,2.34,9.86,2.34,15V50.51a1.76,1.76,0,0,1-1.79,1.73h-9.15a1.76,1.76,0,0,1-1.66-1.73V25.24c0-2,.18-7-.25-8.94-.69-3.2-2.75-4.11-5.41-4.11A6.11,6.11,0,0,0,89.5,16.1c-1,2.41-.86,6.43-.86,9.14V50.51a1.75,1.75,0,0,1-1.77,1.73H77.39a1.75,1.75,0,0,1-1.65-1.73l0-25.27c0-5.32.87-13.15-5.65-13.15s-6.34,7.63-6.34,13.15V50.45a1.76,1.76,0,0,1-1.79,1.72"/><path id="path16" class="cls-2" d="M233.49.19c13.79,0,21.25,11.84,21.25,26.89,0,14.55-8.25,26.09-21.25,26.09-13.54,0-20.91-11.84-20.91-26.6S220,.19,233.49.19m.08,9.73c-6.85,0-7.28,9.33-7.28,15.15s-.09,18.27,7.2,18.27S241,33.3,241,27.19c0-4-.17-8.84-1.39-12.65-1-3.32-3.12-4.62-6.07-4.62"/><path id="path18" class="cls-2" d="M272.68,52.24h-9.44a1.77,1.77,0,0,1-1.67-1.73V2.76a1.76,1.76,0,0,1,1.78-1.56h8.59a1.78,1.78,0,0,1,1.65,1.33V9.9h.17c2.63-6.51,6.32-9.62,12.82-9.62,4.21,0,8.33,1.5,11,5.61C300,9.71,300,16.12,300,20.73v30a1.81,1.81,0,0,1-1.81,1.51h-9.46a1.76,1.76,0,0,1-1.64-1.51V24.83c0-5.21.6-12.84-5.79-12.84A6,6,0,0,0,276,15.8a21.23,21.23,0,0,0-1.47,9V50.45a1.78,1.78,0,0,1-1.82,1.72"/><path id="path28" class="cls-2" d="M148.69,29.4c0,3.61.09,6.63-1.74,9.85a7.56,7.56,0,0,1-6.43,4.22c-3.57,0-5.66-2.72-5.66-6.73,0-7.92,7.1-9.36,13.83-9.36v2m9.57,22.36a1.92,1.92,0,0,1-2.17.22,22.55,22.55,0,0,1-5.28-6.13c-5,5.15-8.62,6.69-15.16,6.69-7.75,0-13.76-4.78-13.76-14.34a15.63,15.63,0,0,1,9.8-15c5-2.2,12-2.58,17.3-3.19V18.81c0-2.19.17-4.78-1.13-6.66a6.11,6.11,0,0,0-5.16-2.4c-3.5,0-6.62,1.8-7.38,5.53A1.94,1.94,0,0,1,133.71,17l-8.91-1a1.62,1.62,0,0,1-1.37-1.93C125.47,3.26,135.25,0,144,0c4.47,0,10.32,1.19,13.85,4.58,4.48,4.18,4.05,9.75,4.05,15.82V34.73c0,4.31,1.78,6.2,3.47,8.53a1.74,1.74,0,0,1,0,2.44c-1.88,1.57-5.22,4.48-7.05,6.11l0,0"/><path id="path30" class="cls-2" d="M27.1,29.4c0,3.61.09,6.63-1.74,9.85-1.48,2.61-3.81,4.22-6.43,4.22-3.57,0-5.64-2.72-5.64-6.73,0-7.92,7.09-9.36,13.81-9.36v2m9.27,22.36A1.92,1.92,0,0,1,34.2,52c-3.05-2.54-3.59-3.71-5.28-6.13-5,5.15-8.61,6.69-15.16,6.69C6,52.56,0,47.78,0,38.22a15.63,15.63,0,0,1,9.81-15c5-2.2,12-2.58,17.29-3.19V18.81c0-2.19.17-4.78-1.11-6.66a6.16,6.16,0,0,0-5.16-2.4c-3.51,0-6.64,1.8-7.4,5.53A1.94,1.94,0,0,1,11.84,17L2.91,16a1.63,1.63,0,0,1-1.37-1.93C3.6,3.26,13.36,0,22.11,0,26.58,0,32.43,1.19,36,4.58c4.48,4.18,4,9.75,4,15.82V34.73c0,4.31,1.78,6.2,3.47,8.53a1.73,1.73,0,0,1,0,2.44c-1.88,1.57-5.21,4.48-7.05,6.11l0,0"/></g></g></g></svg>